<svg width="536" height="536" viewBox="0 0 536 536" fill="none" xmlns="http://www.w3.org/2000/svg">
<g clip-path="url(#clip0_413_218)">
<mask id="mask0_413_218" style="mask-type:alpha" maskUnits="userSpaceOnUse" x="82" y="265" width="209" height="213">
<path d="M284.287 271.401C304.264 290.863 276.718 351.537 222.762 406.918C168.806 462.299 108.871 491.417 88.8944 471.954C68.9175 452.491 96.4633 391.818 150.42 336.437C204.376 281.056 264.311 251.938 284.287 271.401Z" fill="#FFB7B7"/>
</mask>
<g mask="url(#mask0_413_218)">
<path d="M128.781 343.277L265.409 203.041L353.756 289.115L217.128 429.352L128.781 343.277Z" fill="#FFB7B7"/>
</g>
<mask id="mask1_413_218" style="mask-type:alpha" maskUnits="userSpaceOnUse" x="115" y="321" width="122" height="123">
<path d="M224.274 332.999C244.251 352.462 238.731 390.527 211.946 418.02C185.16 445.513 147.252 452.022 127.275 432.56C107.298 413.097 112.818 375.032 139.603 347.539C166.389 320.046 204.297 313.536 224.274 332.999Z" fill="#FFB7B7"/>
</mask>
<g mask="url(#mask1_413_218)">
<path d="M66.9387 384.864L197.683 296.151L234.179 349.939L103.435 438.651L66.9387 384.864Z" fill="#FFB7B7"/>
<path d="M123.646 458.343L200.856 320.493L257.567 352.257L180.357 490.107L123.646 458.343Z" fill="#FFB7B7"/>
</g>
<mask id="mask2_413_218" style="mask-type:alpha" maskUnits="userSpaceOnUse" x="82" y="265" width="209" height="213">
<path d="M284.287 271.401C304.264 290.863 276.718 351.537 222.762 406.918C168.806 462.299 108.871 491.417 88.8944 471.954C68.9175 452.491 96.4633 391.818 150.42 336.437C204.376 281.056 264.311 251.938 284.287 271.401Z" fill="#FFB7B7"/>
</mask>
<g mask="url(#mask2_413_218)">
<path d="M128.781 343.277L265.409 203.041L353.756 289.115L217.128 429.352L128.781 343.277Z" fill="#FFB7B7"/>
</g>
<mask id="mask3_413_218" style="mask-type:alpha" maskUnits="userSpaceOnUse" x="115" y="321" width="122" height="123">
<path d="M224.274 332.999C244.251 352.462 238.731 390.527 211.946 418.02C185.16 445.513 147.252 452.022 127.275 432.56C107.298 413.097 112.818 375.032 139.603 347.539C166.389 320.046 204.297 313.536 224.274 332.999Z" fill="#FFB7B7"/>
</mask>
<g mask="url(#mask3_413_218)">
<path d="M66.9387 384.864L197.683 296.151L234.179 349.939L103.435 438.651L66.9387 384.864Z" fill="#FFB7B7"/>
<path d="M123.646 458.343L200.856 320.493L257.567 352.257L180.357 490.107L123.646 458.343Z" fill="#FFB7B7"/>
</g>
<mask id="mask4_413_218" style="mask-type:alpha" maskUnits="userSpaceOnUse" x="214" y="19" width="102" height="281">
<path d="M265.15 299.071C237.26 299.032 214.739 236.32 214.848 159C214.957 81.6802 237.655 19.032 265.545 19.0713C293.435 19.1107 315.957 81.8227 315.848 159.142C315.738 236.462 293.04 299.11 265.15 299.071Z" fill="#FFB7B7"/>
</mask>
<g mask="url(#mask4_413_218)">
<path d="M326.601 139.157L326.325 334.947L202.98 334.773L203.256 138.983L326.601 139.157Z" fill="#FFB7B7"/>
</g>
<mask id="mask5_413_218" style="mask-type:alpha" maskUnits="userSpaceOnUse" x="214" y="74" width="102" height="140">
<path d="M265.271 213.071C237.381 213.032 214.815 181.884 214.869 143.5C214.924 105.116 237.577 74.032 265.467 74.0713C293.358 74.1107 315.924 105.259 315.869 143.643C315.815 182.026 293.162 213.111 265.271 213.071Z" fill="#FFB7B7"/>
</mask>
<g mask="url(#mask5_413_218)">
<path d="M341.979 66.2368L310.02 220.971L246.363 207.823L278.322 53.0893L341.979 66.2368Z" fill="#FFB7B7"/>
<path d="M250.104 53.0496L290.782 205.723L227.973 222.458L187.295 69.7842L250.104 53.0496Z" fill="#FFB7B7"/>
</g>
<mask id="mask6_413_218" style="mask-type:alpha" maskUnits="userSpaceOnUse" x="214" y="19" width="102" height="281">
<path d="M265.15 299.071C237.26 299.032 214.739 236.32 214.848 159C214.957 81.6802 237.655 19.032 265.545 19.0713C293.435 19.1107 315.957 81.8227 315.848 159.142C315.738 236.462 293.04 299.11 265.15 299.071Z" fill="#FFB7B7"/>
</mask>
<g mask="url(#mask6_413_218)">
<path d="M326.601 139.157L326.325 334.947L202.98 334.773L203.256 138.983L326.601 139.157Z" fill="#FFB7B7"/>
</g>
<mask id="mask7_413_218" style="mask-type:alpha" maskUnits="userSpaceOnUse" x="214" y="74" width="102" height="140">
<path d="M265.271 213.071C237.381 213.032 214.815 181.884 214.869 143.5C214.924 105.116 237.577 74.032 265.467 74.0713C293.358 74.1107 315.924 105.259 315.869 143.643C315.815 182.026 293.162 213.111 265.271 213.071Z" fill="#FFB7B7"/>
</mask>
<g mask="url(#mask7_413_218)">
<path d="M341.979 66.2368L310.02 220.971L246.363 207.823L278.322 53.0893L341.979 66.2368Z" fill="#FFB7B7"/>
<path d="M250.104 53.0496L290.782 205.723L227.973 222.458L187.295 69.7842L250.104 53.0496Z" fill="#FFB7B7"/>
</g>
<mask id="mask8_413_218" style="mask-type:alpha" maskUnits="userSpaceOnUse" x="11" y="184" width="274" height="121">
<path d="M283.814 278.808C276.947 305.84 210.63 312.321 135.69 293.284C60.7506 274.247 5.56669 236.901 12.4336 209.87C19.3004 182.838 85.6178 176.357 160.557 195.393C235.497 214.43 290.681 251.776 283.814 278.808Z" fill="#FFB7B7"/>
</mask>
<g mask="url(#mask8_413_218)">
<path d="M143.814 180.074L333.576 228.279L303.208 347.827L113.445 299.622L143.814 180.074Z" fill="#FFB7B7"/>
</g>
<mask id="mask9_413_218" style="mask-type:alpha" maskUnits="userSpaceOnUse" x="64" y="188" width="138" height="105">
<path d="M200.462 257.634C193.595 284.666 157.87 298.918 120.667 289.468C83.4653 280.018 58.8736 250.443 65.7405 223.411C72.6074 196.379 108.332 182.127 145.535 191.577C182.737 201.028 207.328 230.602 200.462 257.634Z" fill="#FFB7B7"/>
</mask>
<g mask="url(#mask9_413_218)">
<path d="M76.8777 147.31L219.077 216.182L190.744 274.681L48.5446 205.81L76.8777 147.31Z" fill="#FFB7B7"/>
<path d="M41.597 233.16L199.584 231.101L200.431 296.095L42.4441 298.154L41.597 233.16Z" fill="#FFB7B7"/>
</g>
<mask id="mask10_413_218" style="mask-type:alpha" maskUnits="userSpaceOnUse" x="11" y="184" width="274" height="121">
<path d="M283.814 278.808C276.947 305.84 210.63 312.321 135.69 293.284C60.7506 274.247 5.56669 236.901 12.4336 209.87C19.3004 182.838 85.6178 176.357 160.557 195.393C235.497 214.43 290.681 251.776 283.814 278.808Z" fill="#FFB7B7"/>
</mask>
<g mask="url(#mask10_413_218)">
<path d="M143.814 180.074L333.576 228.279L303.208 347.827L113.445 299.622L143.814 180.074Z" fill="#FFB7B7"/>
</g>
<mask id="mask11_413_218" style="mask-type:alpha" maskUnits="userSpaceOnUse" x="64" y="188" width="138" height="105">
<path d="M200.462 257.634C193.595 284.666 157.87 298.918 120.667 289.468C83.4653 280.018 58.8736 250.443 65.7405 223.411C72.6074 196.379 108.332 182.127 145.535 191.577C182.737 201.028 207.328 230.602 200.462 257.634Z" fill="#FFB7B7"/>
</mask>
<g mask="url(#mask11_413_218)">
<path d="M76.8777 147.31L219.077 216.182L190.744 274.681L48.5446 205.81L76.8777 147.31Z" fill="#FFB7B7"/>
<path d="M41.597 233.16L199.584 231.101L200.431 296.095L42.4441 298.154L41.597 233.16Z" fill="#FFB7B7"/>
</g>
<mask id="mask12_413_218" style="mask-type:alpha" maskUnits="userSpaceOnUse" x="252" y="181" width="272" height="125">
<path d="M253.088 281.483C245.519 254.639 299.711 215.868 374.129 194.884C448.547 173.901 515.011 178.652 522.58 205.495C530.149 232.339 475.957 271.111 401.539 292.094C327.121 313.077 260.657 308.327 253.088 281.483Z" fill="#FFB7B7"/>
</mask>
<g mask="url(#mask12_413_218)">
<path d="M423.699 296.989L235.258 350.124L201.784 231.407L390.225 178.273L423.699 296.989Z" fill="#FFB7B7"/>
</g>
<mask id="mask13_413_218" style="mask-type:alpha" maskUnits="userSpaceOnUse" x="334" y="187" width="138" height="105">
<path d="M335.861 258.144C328.292 231.3 352.104 201.095 389.048 190.678C425.991 180.261 462.075 193.578 469.644 220.422C477.213 247.265 453.401 277.471 416.458 287.888C379.514 298.304 343.43 284.988 335.861 258.144Z" fill="#FFB7B7"/>
</mask>
<g mask="url(#mask13_413_218)">
<path d="M498.049 291.895L340.465 303.351L335.753 238.522L493.337 227.066L498.049 291.895Z" fill="#FFB7B7"/>
<path d="M485.679 199.907L349.888 280.683L316.657 224.82L452.448 144.044L485.679 199.907Z" fill="#FFB7B7"/>
</g>
<mask id="mask14_413_218" style="mask-type:alpha" maskUnits="userSpaceOnUse" x="252" y="181" width="272" height="125">
<path d="M253.088 281.483C245.519 254.639 299.711 215.868 374.129 194.884C448.547 173.901 515.011 178.652 522.58 205.495C530.149 232.339 475.957 271.111 401.539 292.094C327.121 313.077 260.657 308.327 253.088 281.483Z" fill="#FFB7B7"/>
</mask>
<g mask="url(#mask14_413_218)">
<path d="M423.699 296.989L235.258 350.124L201.784 231.407L390.225 178.273L423.699 296.989Z" fill="#FFB7B7"/>
</g>
<mask id="mask15_413_218" style="mask-type:alpha" maskUnits="userSpaceOnUse" x="334" y="187" width="138" height="105">
<path d="M335.861 258.144C328.292 231.3 352.104 201.095 389.048 190.678C425.991 180.261 462.075 193.578 469.644 220.422C477.213 247.265 453.401 277.471 416.458 287.888C379.514 298.304 343.43 284.988 335.861 258.144Z" fill="#FFB7B7"/>
</mask>
<g mask="url(#mask15_413_218)">
<path d="M498.049 291.895L340.465 303.351L335.753 238.522L493.337 227.066L498.049 291.895Z" fill="#FFB7B7"/>
<path d="M485.679 199.907L349.888 280.683L316.657 224.82L452.448 144.044L485.679 199.907Z" fill="#FFB7B7"/>
</g>
<mask id="mask16_413_218" style="mask-type:alpha" maskUnits="userSpaceOnUse" x="245" y="267" width="213" height="209">
<path d="M251.274 274.005C270.737 254.028 331.41 281.574 386.791 335.53C442.172 389.487 471.29 449.421 451.827 469.398C432.364 489.375 371.691 461.829 316.31 407.873C260.929 353.917 231.811 293.982 251.274 274.005Z" fill="#FFB7B7"/>
</mask>
<g mask="url(#mask16_413_218)">
<path d="M323.151 429.512L182.914 292.884L268.988 204.536L409.225 341.164L323.151 429.512Z" fill="#FFB7B7"/>
</g>
<mask id="mask17_413_218" style="mask-type:alpha" maskUnits="userSpaceOnUse" x="301" y="322" width="123" height="122">
<path d="M312.872 334.019C332.335 314.042 370.4 319.561 397.893 346.347C425.386 373.132 431.896 411.04 412.433 431.017C392.97 450.994 354.905 445.475 327.412 418.689C299.919 391.904 293.41 353.995 312.872 334.019Z" fill="#FFB7B7"/>
</mask>
<g mask="url(#mask17_413_218)">
<path d="M364.737 491.354L276.025 360.61L329.812 324.114L418.525 454.858L364.737 491.354Z" fill="#FFB7B7"/>
<path d="M438.216 434.646L300.366 357.436L332.13 300.726L469.98 377.936L438.216 434.646Z" fill="#FFB7B7"/>
</g>
<mask id="mask18_413_218" style="mask-type:alpha" maskUnits="userSpaceOnUse" x="245" y="267" width="213" height="209">
<path d="M251.274 274.005C270.737 254.028 331.41 281.574 386.791 335.53C442.172 389.487 471.29 449.421 451.827 469.398C432.364 489.375 371.691 461.829 316.31 407.873C260.929 353.917 231.811 293.982 251.274 274.005Z" fill="#FFB7B7"/>
</mask>
<g mask="url(#mask18_413_218)">
<path d="M323.151 429.512L182.914 292.884L268.988 204.536L409.225 341.164L323.151 429.512Z" fill="#FFB7B7"/>
</g>
<mask id="mask19_413_218" style="mask-type:alpha" maskUnits="userSpaceOnUse" x="301" y="322" width="123" height="122">
<path d="M312.872 334.019C332.335 314.042 370.4 319.561 397.893 346.347C425.386 373.132 431.896 411.04 412.433 431.017C392.97 450.994 354.905 445.475 327.412 418.689C299.919 391.904 293.41 353.995 312.872 334.019Z" fill="#FFB7B7"/>
</mask>
<g mask="url(#mask19_413_218)">
<path d="M364.737 491.354L276.025 360.61L329.812 324.114L418.525 454.858L364.737 491.354Z" fill="#FFB7B7"/>
<path d="M438.216 434.646L300.366 357.436L332.13 300.726L469.98 377.936L438.216 434.646Z" fill="#FFB7B7"/>
</g>
<path d="M287.864 275.384C287.864 287.535 278.014 297.384 265.864 297.384C253.713 297.384 243.864 287.535 243.864 275.384C243.864 263.234 253.713 253.384 265.864 253.384C278.014 253.384 287.864 263.234 287.864 275.384Z" fill="#D9D9D9"/>
</g>
<defs>
<clipPath id="clip0_413_218">
<rect width="536" height="536" fill="white"/>
</clipPath>
</defs>
</svg>
