<svg width="536" height="536" viewBox="0 0 536 536" fill="none" xmlns="http://www.w3.org/2000/svg">
<circle cx="269.5" cy="268.5" r="120.5" transform="rotate(-45 269.5 268.5)" fill="#FFBE18"/>
<rect x="106.158" y="419.821" width="85" height="17" rx="8.5" transform="rotate(-45 106.158 419.821)" fill="#FFBE18"/>
<rect x="360.717" y="165.262" width="85" height="17" rx="8.5" transform="rotate(-45 360.717 165.262)" fill="#FFBE18"/>
<rect x="372.738" y="359.717" width="85" height="17" rx="8.5" transform="rotate(45 372.738 359.717)" fill="#FFBE18"/>
<rect x="372.738" y="359.717" width="85" height="17" rx="8.5" transform="rotate(45 372.738 359.717)" fill="#FFBE18"/>
<rect x="118.179" y="105.158" width="85" height="17" rx="8.5" transform="rotate(45 118.179 105.158)" fill="#FFBE18"/>
<rect x="48" y="261" width="85" height="17" rx="8.5" fill="#FFBE18"/>
<rect x="403" y="261" width="85" height="17" rx="8.5" fill="#FFBE18"/>
<rect x="279" y="403" width="85" height="17" rx="8.5" transform="rotate(90 279 403)" fill="#FFBE18"/>
<rect x="279" y="47" width="85" height="17" rx="8.5" transform="rotate(90 279 47)" fill="#FFBE18"/>
</svg>
