<svg width="536" height="536" viewBox="0 0 536 536" fill="none" xmlns="http://www.w3.org/2000/svg">
<g clip-path="url(#clip0_413_218)">
<path d="M325.125 434.375C323.754 434.379 322.407 434.02 321.219 433.337L270 404.067L218.781 433.337C217.882 433.866 216.888 434.212 215.854 434.354C214.821 434.497 213.769 434.432 212.761 434.164C211.753 433.897 210.808 433.431 209.981 432.795C209.154 432.16 208.462 431.366 207.944 430.46C207.427 429.554 207.094 428.555 206.966 427.52C206.838 426.484 206.917 425.434 207.198 424.43C207.48 423.425 207.958 422.486 208.605 421.668C209.252 420.85 210.055 420.168 210.967 419.663L266.092 388.163C267.282 387.483 268.629 387.125 269.999 387.125C271.37 387.125 272.716 387.483 273.906 388.163L329.031 419.663C330.54 420.524 331.723 421.859 332.394 423.462C333.065 425.064 333.187 426.844 332.742 428.523C332.296 430.202 331.307 431.687 329.929 432.745C328.552 433.804 326.862 434.377 325.125 434.375Z" fill="#B3E5FC"/>
<path d="M333 387.609C331.284 387.609 329.615 387.047 328.247 386.01L269.969 341.859L211.722 385.548C210.495 386.468 209.026 387.01 207.496 387.107C205.966 387.204 204.44 386.852 203.107 386.094C201.774 385.336 200.692 384.205 199.993 382.84C199.293 381.476 199.008 379.936 199.171 378.412L207 305.383L140.816 276.206C139.421 275.588 138.234 274.578 137.402 273.299C136.569 272.02 136.126 270.527 136.126 269C136.126 267.474 136.569 265.981 137.402 264.701C138.234 263.422 139.421 262.412 140.816 261.795L207 232.616L199.171 159.588C199.008 158.063 199.293 156.524 199.993 155.16C200.692 153.795 201.774 152.664 203.107 151.906C204.44 151.148 205.966 150.796 207.496 150.893C209.026 150.99 210.495 151.532 211.722 152.452L270 196.156L328.278 152.452C329.505 151.532 330.974 150.99 332.504 150.893C334.034 150.796 335.56 151.148 336.893 151.906C338.226 152.664 339.308 153.795 340.007 155.16C340.707 156.524 340.992 158.063 340.829 159.588L333 232.616L399.184 261.794C400.58 262.412 401.766 263.422 402.598 264.701C403.431 265.98 403.874 267.473 403.874 269C403.874 270.526 403.431 272.019 402.598 273.298C401.766 274.578 400.58 275.587 399.184 276.205L333 305.383L340.829 378.896C340.948 379.995 340.835 381.107 340.496 382.159C340.157 383.211 339.599 384.179 338.861 385.002C338.122 385.824 337.218 386.481 336.208 386.93C335.199 387.38 334.105 387.611 333 387.609Z" fill="#81D4FA"/>
<path d="M270 324.125C271.717 324.122 273.387 324.684 274.753 325.725L323.233 362.462L316.727 301.338C316.549 299.678 316.903 298.005 317.738 296.559C318.573 295.113 319.845 293.97 321.372 293.294L376.482 269L321.372 244.706C319.844 244.032 318.57 242.889 317.735 241.443C316.9 239.997 316.547 238.322 316.727 236.662L323.233 175.915L274.722 212.298C273.361 213.324 271.704 213.879 270 213.879C268.296 213.879 266.639 213.324 265.278 212.298L216.767 175.915L223.273 236.662C223.453 238.322 223.1 239.997 222.265 241.443C221.43 242.889 220.156 244.032 218.628 244.706L163.518 269L218.628 293.294C220.156 293.968 221.43 295.111 222.265 296.557C223.1 298.003 223.453 299.678 223.273 301.338L216.767 362.085L265.278 325.702C266.639 324.677 268.297 324.123 270 324.125Z" fill="#B3E5FC"/>
<path d="M270 150.875C268.63 150.875 267.283 150.517 266.094 149.837L210.969 118.337C210.056 117.832 209.253 117.15 208.606 116.332C207.959 115.514 207.481 114.575 207.2 113.571C206.919 112.566 206.84 111.516 206.968 110.481C207.096 109.445 207.428 108.446 207.946 107.54C208.463 106.634 209.156 105.841 209.983 105.205C210.81 104.569 211.755 104.104 212.763 103.836C213.771 103.568 214.822 103.504 215.856 103.646C216.889 103.788 217.884 104.134 218.783 104.663L270 133.933L321.219 104.663C322.118 104.134 323.113 103.788 324.146 103.646C325.179 103.504 326.231 103.568 327.239 103.836C328.247 104.104 329.192 104.569 330.019 105.205C330.846 105.841 331.538 106.634 332.056 107.54C332.573 108.446 332.906 109.445 333.034 110.481C333.162 111.516 333.083 112.566 332.802 113.571C332.52 114.575 332.042 115.514 331.395 116.332C330.748 117.15 329.945 117.832 329.033 118.337L273.908 149.837C272.718 150.518 271.371 150.876 270 150.875Z" fill="#B3E5FC"/>
<path d="M270 458C268.966 458.001 267.941 457.797 266.986 457.402C266.03 457.006 265.162 456.426 264.43 455.695C263.699 454.963 263.119 454.095 262.723 453.139C262.328 452.184 262.124 451.159 262.125 450.125V87.875C262.125 85.7864 262.955 83.7834 264.432 82.3065C265.908 80.8297 267.911 80 270 80C272.089 80 274.092 80.8297 275.568 82.3065C277.045 83.7834 277.875 85.7864 277.875 87.875V450.125C277.876 451.159 277.672 452.184 277.277 453.139C276.881 454.095 276.301 454.963 275.57 455.695C274.838 456.426 273.97 457.006 273.014 457.402C272.059 457.797 271.034 458.001 270 458Z" fill="#81D4FA"/>
<path d="M379.773 403.367H379.742C377.653 403.357 375.653 402.518 374.182 401.034C372.711 399.55 371.89 397.543 371.898 395.454L372.19 331.962C372.196 330.587 372.563 329.237 373.254 328.048C373.945 326.859 374.936 325.872 376.128 325.186L431.438 293.194C432.332 292.677 433.32 292.34 434.345 292.205C435.37 292.069 436.412 292.136 437.41 292.403C438.409 292.67 439.345 293.131 440.166 293.76C440.986 294.389 441.675 295.174 442.192 296.069C442.709 296.964 443.045 297.952 443.18 298.977C443.315 300.002 443.247 301.043 442.98 302.042C442.713 303.04 442.251 303.976 441.622 304.797C440.992 305.617 440.208 306.305 439.313 306.822L387.925 336.553L387.648 395.531C387.64 397.613 386.807 399.608 385.33 401.077C383.854 402.546 381.856 403.369 379.773 403.367Z" fill="#B3E5FC"/>
<path d="M104.625 245.867C102.892 245.867 101.208 245.295 99.8332 244.241C98.4584 243.186 97.4701 241.707 97.0214 240.033C96.5728 238.36 96.6889 236.585 97.3517 234.984C98.0146 233.383 99.1871 232.045 100.688 231.178L152.075 201.447L152.352 142.469C152.36 140.387 153.193 138.392 154.67 136.923C156.146 135.455 158.144 134.631 160.227 134.633H160.258C162.347 134.643 164.347 135.482 165.818 136.966C167.289 138.45 168.11 140.457 168.102 142.546L167.81 206.038C167.804 207.414 167.437 208.763 166.746 209.952C166.055 211.141 165.064 212.128 163.872 212.814L108.563 244.806C107.368 245.504 106.009 245.87 104.625 245.867Z" fill="#B3E5FC"/>
<path d="M428.207 367.437C426.837 367.441 425.489 367.083 424.302 366.399L107.885 185.274C106.103 184.223 104.806 182.511 104.275 180.511C103.745 178.511 104.023 176.382 105.05 174.585C106.076 172.788 107.769 171.467 109.762 170.909C111.755 170.35 113.888 170.599 115.699 171.601L432.114 352.726C433.621 353.588 434.8 354.923 435.47 356.525C436.139 358.127 436.26 359.905 435.815 361.583C435.369 363.26 434.382 364.744 433.006 365.803C431.631 366.862 429.943 367.436 428.207 367.437Z" fill="#81D4FA"/>
<path d="M435.375 245.867C433.991 245.87 432.632 245.504 431.438 244.806L376.128 212.814C374.936 212.128 373.945 211.141 373.254 209.952C372.563 208.763 372.196 207.414 372.19 206.038L371.898 142.546C371.89 140.457 372.711 138.45 374.182 136.966C375.653 135.482 377.653 134.643 379.742 134.633H379.773C381.856 134.631 383.854 135.455 385.33 136.923C386.807 138.392 387.64 140.387 387.648 142.469L387.925 201.447L439.312 231.178C440.813 232.045 441.985 233.383 442.648 234.984C443.311 236.585 443.427 238.36 442.979 240.033C442.53 241.707 441.542 243.186 440.167 244.241C438.792 245.295 437.108 245.867 435.375 245.867Z" fill="#B3E5FC"/>
<path d="M160.227 403.367C158.144 403.369 156.146 402.546 154.67 401.077C153.193 399.608 152.36 397.613 152.352 395.531L152.075 336.553L100.687 306.822C99.7922 306.305 99.0075 305.617 98.3782 304.797C97.749 303.976 97.2875 303.04 97.0201 302.042C96.7527 301.043 96.6847 300.002 96.8199 298.977C96.9551 297.952 97.2909 296.964 97.8081 296.069C98.3254 295.174 99.0139 294.389 99.8343 293.76C100.655 293.131 101.591 292.67 102.59 292.403C103.588 292.136 104.63 292.069 105.655 292.205C106.68 292.34 107.668 292.677 108.562 293.194L163.872 325.186C165.064 325.872 166.055 326.859 166.746 328.048C167.437 329.237 167.804 330.587 167.81 331.962L168.102 395.454C168.11 397.543 167.289 399.55 165.818 401.034C164.347 402.518 162.347 403.357 160.258 403.367H160.227Z" fill="#B3E5FC"/>
<path d="M111.793 367.437C110.057 367.436 108.37 366.862 106.994 365.803C105.618 364.744 104.631 363.26 104.186 361.583C103.74 359.905 103.862 358.127 104.531 356.525C105.2 354.923 106.38 353.588 107.887 352.726L424.302 171.601C426.113 170.599 428.245 170.35 430.238 170.909C432.231 171.467 433.924 172.788 434.951 174.585C435.978 176.382 436.256 178.511 435.725 180.511C435.194 182.511 433.898 184.223 432.115 185.274L115.7 366.399C114.512 367.083 113.164 367.441 111.793 367.437Z" fill="#81D4FA"/>
<path d="M431.437 293.194L380.045 322.92L342.271 301.297L399.184 276.206C400.579 275.588 401.766 274.578 402.598 273.299C403.431 272.02 403.874 270.527 403.874 269C403.874 267.474 403.431 265.981 402.598 264.701C401.766 263.422 400.579 262.412 399.184 261.795L342.271 236.703L380.045 215.08L431.437 244.806C432.632 245.504 433.991 245.87 435.375 245.867C437.108 245.867 438.792 245.295 440.167 244.241C441.542 243.186 442.53 241.707 442.979 240.033C443.427 238.36 443.311 236.585 442.648 234.984C441.985 233.383 440.813 232.045 439.312 231.178L395.85 206.033L432.114 185.274C433.897 184.223 435.194 182.511 435.724 180.511C436.255 178.511 435.977 176.382 434.95 174.585C433.923 172.788 432.23 171.467 430.237 170.909C428.244 170.35 426.112 170.599 424.301 171.601L387.883 192.448L387.648 142.469C387.64 140.387 386.807 138.392 385.33 136.923C383.854 135.455 381.856 134.631 379.773 134.633H379.742C377.652 134.643 375.653 135.482 374.182 136.966C372.711 138.45 371.89 140.457 371.898 142.546L372.169 201.442L334 223.292L340.829 159.588C340.992 158.064 340.707 156.524 340.007 155.16C339.308 153.795 338.226 152.664 336.893 151.906C335.56 151.148 334.034 150.796 332.504 150.893C330.974 150.99 329.505 151.532 328.278 152.452L277.875 190.252V147.569L329.031 118.337C329.944 117.832 330.747 117.15 331.394 116.332C332.041 115.514 332.519 114.575 332.8 113.571C333.081 112.566 333.16 111.516 333.032 110.481C332.904 109.445 332.572 108.446 332.054 107.54C331.537 106.635 330.844 105.841 330.017 105.205C329.19 104.569 328.245 104.104 327.237 103.836C326.229 103.568 325.178 103.504 324.144 103.646C323.111 103.788 322.116 104.134 321.217 104.664L277.875 129.433V87.875C277.875 85.7864 277.045 83.7834 275.568 82.3065C274.092 80.8297 272.089 80 270 80C267.911 80 265.908 80.8297 264.431 82.3065C262.955 83.7834 262.125 85.7864 262.125 87.875V129.433L218.781 104.663C217.882 104.133 216.887 103.788 215.854 103.646C214.821 103.503 213.769 103.568 212.761 103.836C211.753 104.103 210.808 104.569 209.981 105.205C209.154 105.84 208.462 106.634 207.944 107.54C207.427 108.446 207.094 109.445 206.966 110.48C206.838 111.516 206.917 112.566 207.198 113.57C207.48 114.575 207.958 115.514 208.605 116.332C209.252 117.15 210.055 117.832 210.967 118.337L262.125 147.569V190.252L211.722 152.452C210.495 151.532 209.026 150.99 207.496 150.893C205.966 150.796 204.44 151.148 203.107 151.906C201.774 152.664 200.692 153.795 199.993 155.16C199.293 156.524 199.008 158.064 199.171 159.588L206 223.292L167.831 201.442L168.102 142.546C168.11 140.457 167.289 138.45 165.818 136.966C164.347 135.482 162.347 134.643 160.258 134.633H160.227C158.144 134.631 156.146 135.455 154.67 136.923C153.193 138.392 152.36 140.387 152.352 142.469L152.117 192.448L115.699 171.601C113.888 170.599 111.755 170.35 109.763 170.909C107.77 171.467 106.077 172.788 105.05 174.585C104.023 176.382 103.745 178.511 104.276 180.511C104.806 182.511 106.103 184.223 107.886 185.274L144.15 206.033L100.687 231.178C99.1871 232.045 98.0145 233.383 97.3517 234.984C96.6889 236.585 96.5728 238.36 97.0214 240.033C97.4701 241.707 98.4584 243.186 99.8331 244.241C101.208 245.295 102.892 245.867 104.625 245.867C106.009 245.87 107.368 245.504 108.562 244.806L159.955 215.08L197.729 236.703L140.816 261.794C139.42 262.412 138.234 263.422 137.402 264.701C136.569 265.98 136.126 267.473 136.126 269C136.126 270.526 136.569 272.019 137.402 273.299C138.234 274.578 139.42 275.588 140.816 276.205L197.729 301.297L159.955 322.92L108.562 293.194C107.668 292.676 106.68 292.34 105.655 292.204C104.63 292.069 103.588 292.136 102.59 292.403C101.591 292.67 100.655 293.131 99.8343 293.76C99.0139 294.389 98.3254 295.173 97.8081 296.069C97.2909 296.964 96.9551 297.952 96.8199 298.977C96.6847 300.002 96.7527 301.043 97.0201 302.042C97.2875 303.04 97.749 303.976 98.3782 304.796C99.0075 305.617 99.7922 306.305 100.687 306.822L144.15 331.967L107.885 352.726C106.972 353.231 106.169 353.912 105.521 354.73C104.874 355.549 104.396 356.487 104.114 357.492C103.833 358.497 103.753 359.547 103.881 360.583C104.009 361.618 104.342 362.618 104.86 363.524C105.377 364.43 106.07 365.224 106.897 365.86C107.724 366.496 108.669 366.961 109.678 367.228C110.686 367.496 111.738 367.56 112.771 367.418C113.805 367.276 114.8 366.929 115.699 366.399L152.117 345.552L152.351 395.531C152.359 397.613 153.193 399.608 154.669 401.077C156.145 402.546 158.144 403.369 160.226 403.367H160.258C162.347 403.357 164.347 402.518 165.817 401.034C167.288 399.55 168.11 397.543 168.101 395.454L167.83 336.558L206 314.708L199.171 378.412C199.008 379.936 199.293 381.476 199.993 382.84C200.692 384.205 201.774 385.336 203.107 386.094C204.44 386.852 205.966 387.204 207.496 387.107C209.026 387.01 210.495 386.468 211.722 385.548L262.125 347.743V390.431L210.969 419.663C210.056 420.168 209.253 420.85 208.606 421.668C207.959 422.486 207.481 423.425 207.2 424.429C206.919 425.434 206.84 426.484 206.968 427.519C207.096 428.555 207.428 429.554 207.946 430.46C208.463 431.365 209.156 432.159 209.983 432.795C210.81 433.431 211.755 433.896 212.763 434.164C213.771 434.432 214.822 434.496 215.856 434.354C216.889 434.212 217.884 433.866 218.783 433.336L262.125 408.567V450.125C262.125 452.214 262.955 454.217 264.431 455.693C265.908 457.17 267.911 458 270 458C272.089 458 274.092 457.17 275.568 455.693C277.045 454.217 277.875 452.214 277.875 450.125V408.567L321.219 433.337C322.407 434.021 323.754 434.379 325.125 434.375C326.862 434.377 328.552 433.804 329.929 432.745C331.307 431.687 332.296 430.202 332.742 428.523C333.187 426.844 333.065 425.064 332.394 423.462C331.723 421.859 330.54 420.524 329.031 419.663L277.875 390.431V347.848L328.247 386.01C329.472 386.94 330.942 387.491 332.476 387.594C334.01 387.698 335.54 387.35 336.879 386.593C338.217 385.837 339.304 384.704 340.006 383.337C340.708 381.969 340.994 380.425 340.829 378.897L333.993 314.705L372.17 336.558L371.898 395.454C371.89 397.543 372.712 399.551 374.182 401.034C375.653 402.518 377.653 403.357 379.742 403.368H379.773C381.856 403.37 383.854 402.546 385.331 401.077C386.807 399.608 387.64 397.614 387.648 395.531L387.883 345.553L424.301 366.4C426.112 367.402 428.245 367.65 430.238 367.092C432.23 366.533 433.923 365.213 434.95 363.416C435.977 361.619 436.255 359.49 435.725 357.489C435.194 355.489 433.897 353.778 432.115 352.726L395.85 331.968L439.312 306.822C440.208 306.305 440.992 305.617 441.622 304.796C442.251 303.976 442.712 303.04 442.98 302.042C443.247 301.043 443.315 300.002 443.18 298.977C443.045 297.952 442.709 296.964 442.192 296.069C441.675 295.173 440.986 294.389 440.166 293.76C439.345 293.131 438.409 292.67 437.41 292.403C436.411 292.136 435.37 292.069 434.345 292.204C433.32 292.34 432.332 292.676 431.437 293.194Z" fill="url(#paint0_linear_413_218)"/>
</g>
<defs>
<linearGradient id="paint0_linear_413_218" x1="140.042" y1="139.043" x2="399.954" y2="398.955" gradientUnits="userSpaceOnUse">
<stop stop-color="white" stop-opacity="0"/>
<stop offset="1" stop-color="white" stop-opacity="0.1"/>
</linearGradient>
<clipPath id="clip0_413_218">
<rect width="378" height="378" fill="white" transform="translate(81 80)"/>
</clipPath>
</defs>
</svg>
