<svg width="536" height="536" viewBox="0 0 536 536" fill="none" xmlns="http://www.w3.org/2000/svg">
<path d="M338.286 253.091C338.286 249.447 336.953 246.294 334.289 243.631C331.624 240.968 328.468 239.636 324.821 239.636C300.698 239.636 278.398 243.105 257.921 250.043C237.444 256.98 219.246 266.37 203.327 278.213C187.409 290.056 170.894 305.437 153.783 324.358C151.118 327.301 149.786 330.455 149.786 333.818C149.786 337.462 151.118 340.616 153.783 343.278C156.448 345.941 159.603 347.273 163.25 347.273C166.616 347.273 169.772 345.941 172.717 343.278C176.504 339.915 181.693 334.939 188.285 328.352C194.877 321.765 199.576 317.14 202.381 314.477C221.595 297.098 240.424 284.765 258.867 277.477C277.311 270.189 299.295 266.545 324.821 266.545C328.468 266.545 331.624 265.214 334.289 262.551C336.953 259.888 338.286 256.735 338.286 253.091ZM446 211.466C446 224.78 444.597 238.305 441.792 252.04C435.341 283.434 422.402 310.273 402.977 332.557C383.552 354.841 358.482 373.621 327.767 388.898C297.753 404.034 267.037 411.602 235.621 411.602C214.863 411.602 194.807 408.309 175.452 401.722C173.348 401.021 167.177 398.078 156.939 392.892C146.7 387.706 139.968 385.114 136.742 385.114C134.498 385.114 131.728 387.356 128.432 391.841C125.136 396.326 121.981 401.231 118.965 406.557C115.95 411.883 112.268 416.788 107.92 421.273C103.572 425.758 99.3648 428 95.2974 428C91.0898 428 87.5134 427.229 84.5681 425.687C81.6228 424.146 79.4488 422.464 78.0463 420.642C76.6438 418.82 74.7504 415.877 72.3661 411.812C72.0856 411.252 71.6648 410.481 71.1038 409.5C70.5428 408.519 70.1571 407.818 69.9467 407.398C69.7363 406.977 69.5259 406.312 69.3156 405.401C69.1052 404.49 69 403.544 69 402.562C69 397.657 71.1739 392.507 75.5218 387.111C79.8696 381.715 84.6382 377.125 89.8276 373.341C95.0169 369.557 99.7855 365.633 104.133 361.568C108.481 357.504 110.655 354.14 110.655 351.477C110.655 350.917 109.673 348.254 107.71 343.489C105.746 338.723 104.624 335.64 104.344 334.239C103.081 327.091 102.45 319.803 102.45 312.375C102.45 296.258 105.501 280.841 111.602 266.125C117.703 251.409 126.048 238.48 136.637 227.338C147.226 216.196 159.183 206.455 172.507 198.116C185.831 189.777 200.137 183.085 215.424 178.04C223.138 175.517 233.306 173.73 245.929 172.679C258.552 171.628 271.14 170.997 283.692 170.787C296.245 170.577 308.762 170.156 321.245 169.526C333.727 168.895 345.193 167.213 355.642 164.48C366.091 161.747 374.05 157.788 379.52 152.602L385.726 146.401L391.932 140.514L397.613 136.31L405.292 132.946L414.443 132C419.913 132 424.857 135.223 429.275 141.67C433.693 148.117 437.024 155.966 439.268 165.216C441.512 174.466 443.195 183.155 444.317 191.284C445.439 199.413 446 206.14 446 211.466Z" fill="#895C19"/>
</svg>
