<svg width="18" height="16" viewBox="0 0 18 16" fill="none" xmlns="http://www.w3.org/2000/svg">
<path d="M9.00094 16L1.36492 8.18065C0.755825 7.55693 0.349759 6.83179 0.146727 6.00523C-0.0513542 5.17867 -0.0488783 4.35718 0.154154 3.54077C0.357187 2.71928 0.760777 2.00428 1.36492 1.39577C1.98393 0.772046 2.68959 0.358767 3.48191 0.155931C4.27919 -0.051977 5.07399 -0.051977 5.86631 0.155931C6.66359 0.363838 7.37173 0.777117 7.99073 1.39577L9.00094 2.39981L10.0112 1.39577C10.6351 0.777117 11.3432 0.363838 12.1356 0.155931C12.9279 -0.051977 13.7202 -0.051977 14.5125 0.155931C15.3098 0.358767 16.018 0.772046 16.637 1.39577C17.2411 2.00428 17.6447 2.71928 17.8477 3.54077C18.0508 4.35718 18.0508 5.17867 17.8477 6.00523C17.6496 6.83179 17.2461 7.55693 16.637 8.18065L9.00094 16ZM9.00094 13.6344L15.4782 6.99406C15.8743 6.59346 16.1368 6.1244 16.2656 5.58688C16.3993 5.04936 16.4017 4.51438 16.273 3.98194C16.1442 3.44442 15.8842 2.98043 15.493 2.58997C15.087 2.17922 14.624 1.90793 14.104 1.77609C13.589 1.63917 13.0715 1.63917 12.5515 1.77609C12.0316 1.913 11.5636 2.18683 11.1476 2.59757L9.00094 4.73497L6.85424 2.59757C6.44322 2.18683 5.97526 1.913 5.45034 1.77609C4.93038 1.63917 4.41042 1.63917 3.89045 1.77609C3.37544 1.90793 2.91491 2.17922 2.50884 2.58997C2.11763 2.98043 1.85765 3.44442 1.7289 3.98194C1.60014 4.51438 1.60262 5.04936 1.73633 5.58688C1.87003 6.1244 2.13249 6.59346 2.5237 6.99406L9.00094 13.6344Z" fill="#C4C4C4"/>
</svg>
