<svg width="238" height="132" viewBox="0 0 238 132" fill="none" xmlns="http://www.w3.org/2000/svg">
<g filter="url(#filter0_d_93_52)">
<path fill-rule="evenodd" clip-rule="evenodd" d="M34.1922 119.913L31.0085 114.878H32.3921L34.8776 118.863L37.3118 114.878H38.6954L35.5246 119.9V123.795H34.1922V119.913ZM152.971 117.562C152.762 118.126 152.657 118.756 152.657 119.452C152.657 120.827 153.052 121.933 153.842 122.77C154.62 123.59 155.634 124 156.885 124C158.141 124 159.153 123.59 159.921 122.77C160.707 121.937 161.1 120.831 161.1 119.452C161.1 118.073 160.707 116.962 159.921 116.121C159.149 115.292 158.136 114.878 156.885 114.878C155.638 114.878 154.624 115.292 153.842 116.121C153.471 116.518 153.18 116.998 152.971 117.562ZM154.65 121.86C154.176 121.224 153.939 120.419 153.939 119.445C153.939 118.472 154.176 117.667 154.65 117.031C155.179 116.313 155.924 115.954 156.885 115.954C157.842 115.954 158.585 116.313 159.114 117.031C159.584 117.667 159.819 118.476 159.819 119.458C159.819 120.432 159.584 121.233 159.114 121.86C158.585 122.569 157.842 122.924 156.885 122.924C155.929 122.924 155.183 122.569 154.65 121.86ZM225.408 116.006H228.092V123.795H229.373V116.006H232.057V114.878H225.408V116.006ZM201.285 114.981H200.363V123.898H201.631V118.434L201.561 117.319L202.336 118.434L206.224 123.898H207.14V114.981H205.872V120.637L205.942 121.56L201.285 114.981ZM180.088 114.981H181.369V123.898H180.088V114.981ZM127.612 114.981H130.142C131.829 114.981 132.916 115.481 133.403 116.48C133.578 116.847 133.665 117.283 133.665 117.787C133.665 118.291 133.576 118.722 133.396 119.081C133.217 119.439 132.976 119.734 132.672 119.965C132.083 120.409 131.295 120.631 130.309 120.631H128.893V123.898H127.612V114.981ZM130.059 119.606C130.832 119.606 131.404 119.456 131.776 119.157C132.147 118.859 132.333 118.393 132.333 117.761C132.333 116.92 131.942 116.377 131.161 116.134C130.887 116.049 130.556 116.006 130.168 116.006H128.893V119.606H130.059ZM103.489 114.981H102.567V123.898H103.835V118.434L103.764 117.319L104.539 118.434L108.428 123.898H109.344V114.981H108.075V120.637L108.146 121.56L103.489 114.981ZM82.292 114.981H83.5731V123.898H82.292V114.981ZM59.7771 114.981H57.2468V123.898H58.5279V120.631H59.9436C60.9301 120.631 61.718 120.409 62.3073 119.965C62.6105 119.734 62.8518 119.439 63.0312 119.081C63.2105 118.722 63.3002 118.291 63.3002 117.787C63.3002 117.283 63.2127 116.847 63.0376 116.48C62.5507 115.481 61.4639 114.981 59.7771 114.981ZM61.4105 119.157C61.039 119.456 60.4667 119.606 59.6938 119.606H58.5279V116.006H59.8027C60.1913 116.006 60.5223 116.049 60.7956 116.134C61.5771 116.377 61.9678 116.92 61.9678 117.761C61.9678 118.393 61.7821 118.859 61.4105 119.157ZM5.59044 114.878H4.77051V123.795H6.05166V117.011L6.44241 117.524L8.7677 120.227L11.093 117.517L11.4709 117.005V123.795H12.7521V114.878H11.9321L8.7677 118.529L5.59044 114.878Z" fill="black"/>
</g>
<path fill-rule="evenodd" clip-rule="evenodd" d="M210.998 37.6786L208.077 45.7052H213.92L210.998 37.6786ZM169.238 96.6224L180.825 64.7873H130.568L116.606 103.149C114.803 108.1 109.328 110.654 104.377 108.851C99.4252 107.049 96.8721 101.574 98.6744 96.6224L99.1161 95.4087C99.0781 95.3969 99.0402 95.3849 99.0024 95.3727L107.196 72.8607L107.259 73.0349L131.307 6.96556C132.748 3.0052 136.539 0.579185 140.533 0.688682C144.527 0.578141 148.319 3.00433 149.761 6.96549L163.861 45.7052H187.77L201.87 6.96556C203.3 3.03817 207.04 0.619689 210.996 0.686474C214.955 0.618035 218.697 3.03682 220.127 6.96549L236.443 51.7939C238.245 56.7455 235.692 62.2206 230.74 64.0228C230.184 64.2253 229.621 64.3729 229.057 64.4682C228.274 64.6764 227.45 64.7873 226.601 64.7873H201.132L187.169 103.149C185.367 108.1 179.892 110.654 174.94 108.851C169.989 107.049 167.436 101.574 169.238 96.6224ZM140.534 37.4067L137.514 45.7052H143.554L140.534 37.4067ZM48.1249 1.26312C43.1733 -0.539119 37.6982 2.01395 35.896 6.96556L3.26354 96.6224C1.4613 101.574 4.01437 107.049 8.96598 108.851C13.9176 110.654 19.3927 108.1 21.1949 103.149L53.8273 13.492C55.6296 8.54043 53.0765 3.06536 48.1249 1.26312ZM73.9648 37.3509L50.0163 103.149C48.2141 108.1 42.739 110.654 37.7874 108.851C32.8358 107.049 30.2827 101.574 32.085 96.6224L64.7174 6.96556C66.1614 2.99818 69.9632 0.570598 73.9645 0.689287C77.966 0.570337 81.7682 2.99797 83.2122 6.96554L101.862 58.2046C101.798 58.3404 101.74 58.4802 101.688 58.6239L91.6976 86.0713L73.9648 37.3509Z" fill="#655649"/>
<rect x="39.1589" y="-2" width="19.0822" height="114.493" rx="9.54108" transform="rotate(20 39.1589 -2)" fill="#E45A5A"/>
<defs>
<filter id="filter0_d_93_52" x="0.770508" y="114.878" width="235.287" height="17.1218" filterUnits="userSpaceOnUse" color-interpolation-filters="sRGB">
<feFlood flood-opacity="0" result="BackgroundImageFix"/>
<feColorMatrix in="SourceAlpha" type="matrix" values="0 0 0 0 0 0 0 0 0 0 0 0 0 0 0 0 0 0 127 0" result="hardAlpha"/>
<feOffset dy="4"/>
<feGaussianBlur stdDeviation="2"/>
<feComposite in2="hardAlpha" operator="out"/>
<feColorMatrix type="matrix" values="0 0 0 0 0 0 0 0 0 0 0 0 0 0 0 0 0 0 0.25 0"/>
<feBlend mode="normal" in2="BackgroundImageFix" result="effect1_dropShadow_93_52"/>
<feBlend mode="normal" in="SourceGraphic" in2="effect1_dropShadow_93_52" result="shape"/>
</filter>
</defs>
</svg>
