<svg width="236" height="110" viewBox="0 0 236 110" fill="none" xmlns="http://www.w3.org/2000/svg">
<path fill-rule="evenodd" clip-rule="evenodd" d="M208.998 37.6786L206.077 45.7052H211.92L208.998 37.6786ZM167.238 96.6224L178.825 64.7873H128.568L114.606 103.149C112.803 108.1 107.328 110.654 102.377 108.851C97.4252 107.049 94.8721 101.574 96.6744 96.6224L97.1161 95.4087C97.0781 95.3969 97.0402 95.3849 97.0024 95.3727L105.196 72.8607L105.259 73.0349L129.307 6.96556C130.748 3.0052 134.539 0.579185 138.533 0.688682C142.527 0.578141 146.319 3.00433 147.761 6.96549L161.861 45.7052H185.77L199.87 6.96556C201.3 3.03817 205.04 0.619689 208.996 0.686474C212.955 0.618035 216.697 3.03682 218.127 6.96549L234.443 51.7939C236.245 56.7455 233.692 62.2206 228.74 64.0228C228.184 64.2253 227.621 64.3729 227.057 64.4682C226.274 64.6764 225.45 64.7873 224.601 64.7873H199.132L185.169 103.149C183.367 108.1 177.892 110.654 172.94 108.851C167.989 107.049 165.436 101.574 167.238 96.6224ZM138.534 37.4067L135.514 45.7052H141.554L138.534 37.4067ZM46.1249 1.26312C41.1733 -0.539119 35.6982 2.01395 33.896 6.96556L1.26354 96.6224C-0.538697 101.574 2.01437 107.049 6.96598 108.851C11.9176 110.654 17.3927 108.1 19.1949 103.149L51.8273 13.492C53.6296 8.54043 51.0765 3.06536 46.1249 1.26312ZM71.9648 37.3509L48.0163 103.149C46.2141 108.1 40.739 110.654 35.7874 108.851C30.8358 107.049 28.2827 101.574 30.085 96.6224L62.7174 6.96556C64.1614 2.99818 67.9632 0.570598 71.9645 0.689287C75.966 0.570337 79.7682 2.99797 81.2122 6.96554L99.8617 58.2046C99.798 58.3404 99.7399 58.4802 99.6876 58.6239L89.6976 86.0713L71.9648 37.3509Z" fill="#655649"/>
<rect x="37.1589" y="-2" width="19.0822" height="114.493" rx="9.54108" transform="rotate(20 37.1589 -2)" fill="#E45A5A"/>
</svg>
