<svg width="103" height="61" viewBox="0 0 103 61" fill="none" xmlns="http://www.w3.org/2000/svg">
<g id="mpp">
<g id="Group 2">
<rect id="Rectangle 31" x="27.8722" y="2.72269" width="7.96067" height="41.729" rx="3.98033" transform="rotate(-20 27.8722 2.72269)" fill="#655649"/>
<rect id="Rectangle 34" x="58.1396" width="7.96067" height="47.764" rx="3.98033" transform="rotate(20 58.1396 0)" fill="#655649"/>
<rect id="Rectangle 35" x="87.5772" width="7.96067" height="47.764" rx="3.98033" transform="rotate(20 87.5772 0)" fill="#655649"/>
<rect id="Rectangle 36" x="55.635" y="2.72269" width="7.96067" height="27.8623" rx="3.98033" transform="rotate(-20 55.635 2.72269)" fill="#655649"/>
<rect id="Rectangle 38" x="84.99" y="2.72269" width="7.96067" height="27.8623" rx="3.98033" transform="rotate(-20 84.99 2.72269)" fill="#655649"/>
<rect id="Rectangle 37" x="100.513" y="19.9017" width="7.96067" height="50.2517" rx="3.98033" transform="rotate(90 100.513 19.9017)" fill="#655649"/>
<rect id="Rectangle 33" x="18.3363" width="7.96067" height="47.764" rx="3.98033" transform="rotate(20 18.3363 0)" fill="#E45A5A"/>
<rect id="Rectangle 39" x="53.4458" y="0.497542" width="4.19079" height="47.764" rx="2.0954" transform="rotate(20 53.4458 0.497542)" fill="white"/>
<rect id="Rectangle 32" x="30.3599" width="7.96067" height="47.764" rx="3.98033" transform="rotate(20 30.3599 0)" fill="#655649"/>
</g>
<g id="MYPINPOINT">
<g id="Vector" filter="url(#filter0_d_96_822)">
<path d="M97.1552 49.2295H96.0355V48.7591H98.8094V49.2295H97.6896V52.479H97.1552V49.2295Z" fill="black"/>
</g>
<g id="Vector_2" filter="url(#filter1_d_96_822)">
<path d="M85.5871 48.8019H85.9719L87.9147 51.5464L87.8853 51.1616V48.8019H88.4144V52.5218H88.0323L86.4101 50.2423L86.0868 49.7773L86.1162 50.2423V52.5218H85.5871V48.8019Z" fill="black"/>
</g>
<g id="Vector_3" filter="url(#filter2_d_96_822)">
<path d="M77.1289 48.8019H77.6633V52.5218H77.1289V48.8019Z" fill="black"/>
</g>
<g id="Vector_4" filter="url(#filter3_d_96_822)">
<path d="M65.6854 50.6672C65.6854 50.3768 65.729 50.114 65.8163 49.8789C65.9036 49.6437 66.0248 49.4433 66.1798 49.2776C66.5058 48.932 66.9289 48.7591 67.4491 48.7591C67.9711 48.7591 68.3934 48.932 68.7158 49.2776C69.0436 49.6286 69.2075 50.0918 69.2075 50.6672C69.2075 51.2426 69.0436 51.7041 68.7158 52.0515C68.3952 52.3935 67.9729 52.5646 67.4491 52.5646C66.9271 52.5646 66.504 52.3935 66.1798 52.0515C65.8502 51.7023 65.6854 51.2409 65.6854 50.6672ZM66.2199 50.6645C66.2199 51.0707 66.3187 51.4065 66.5165 51.672C66.7392 51.9677 67.0501 52.1156 67.4491 52.1156C67.8482 52.1156 68.1582 51.9677 68.3791 51.672C68.5751 51.4101 68.6731 51.0761 68.6731 50.6699C68.6731 50.2601 68.5751 49.9225 68.3791 49.6571C68.1582 49.3578 67.8482 49.2081 67.4491 49.2081C67.0483 49.2081 66.7374 49.3578 66.5165 49.6571C66.3187 49.9225 66.2199 50.2583 66.2199 50.6645Z" fill="black"/>
</g>
<g id="Vector_5" filter="url(#filter4_d_96_822)">
<path d="M55.237 48.8019H56.2926C56.9963 48.8019 57.4497 49.0103 57.6528 49.4272C57.7259 49.5804 57.7624 49.7622 57.7624 49.9724C57.7624 50.1826 57.725 50.3626 57.6502 50.5122C57.5753 50.6619 57.4747 50.7848 57.3482 50.881C57.1023 51.0663 56.7736 51.1589 56.3621 51.1589H55.7715V52.5218H55.237V48.8019ZM56.2579 50.7313C56.5803 50.7313 56.8191 50.669 56.9741 50.5443C57.129 50.4196 57.2065 50.2254 57.2065 49.9617C57.2065 49.6107 57.0435 49.3845 56.7175 49.2829C56.6035 49.2473 56.4654 49.2295 56.3033 49.2295H55.7715V50.7313H56.2579Z" fill="black"/>
</g>
<g id="Vector_6" filter="url(#filter5_d_96_822)">
<path d="M44.7886 48.8019H45.1735L47.1162 51.5464L47.0869 51.1616V48.8019H47.616V52.5218H47.2338L45.6117 50.2423L45.2884 49.7773L45.3178 50.2423V52.5218H44.7886V48.8019Z" fill="black"/>
</g>
<g id="Vector_7" filter="url(#filter6_d_96_822)">
<path d="M36.3304 48.8019H36.8649V52.5218H36.3304V48.8019Z" fill="black"/>
</g>
<g id="Vector_8" filter="url(#filter7_d_96_822)">
<path d="M25.8821 48.8019H26.9377C27.6414 48.8019 28.0948 49.0103 28.2979 49.4272C28.3709 49.5804 28.4074 49.7622 28.4074 49.9724C28.4074 50.1826 28.37 50.3626 28.2952 50.5122C28.2204 50.6619 28.1197 50.7848 27.9932 50.881C27.7474 51.0663 27.4187 51.1589 27.0071 51.1589H26.4165V52.5218H25.8821V48.8019ZM26.9029 50.7313C27.2254 50.7313 27.4641 50.669 27.6191 50.5443C27.7741 50.4196 27.8516 50.2254 27.8516 49.9617C27.8516 49.6107 27.6886 49.3845 27.3626 49.2829C27.2485 49.2473 27.1105 49.2295 26.9483 49.2295H26.4165V50.7313H26.9029Z" fill="black"/>
</g>
<g id="Vector_9" filter="url(#filter8_d_96_822)">
<path d="M16.2643 50.8596L14.9362 48.7591H15.5134L16.5503 50.4213L17.5657 48.7591H18.143L16.8202 50.8543V52.479H16.2643V50.8596Z" fill="black"/>
</g>
<g id="Vector_10" filter="url(#filter9_d_96_822)">
<path d="M3.99017 48.7591H4.33223L5.65772 50.2823L6.97785 48.7591H7.31991V52.479H6.78544V49.6463L6.62778 49.8601L5.65772 50.9905L4.68765 49.8628L4.52464 49.649V52.479H3.99017V48.7591Z" fill="black"/>
</g>
</g>
</g>
<defs>
<filter id="filter0_d_96_822" x="92.0355" y="48.7591" width="10.7739" height="11.7199" filterUnits="userSpaceOnUse" color-interpolation-filters="sRGB">
<feFlood flood-opacity="0" result="BackgroundImageFix"/>
<feColorMatrix in="SourceAlpha" type="matrix" values="0 0 0 0 0 0 0 0 0 0 0 0 0 0 0 0 0 0 127 0" result="hardAlpha"/>
<feOffset dy="4"/>
<feGaussianBlur stdDeviation="2"/>
<feComposite in2="hardAlpha" operator="out"/>
<feColorMatrix type="matrix" values="0 0 0 0 0 0 0 0 0 0 0 0 0 0 0 0 0 0 0.25 0"/>
<feBlend mode="normal" in2="BackgroundImageFix" result="effect1_dropShadow_96_822"/>
<feBlend mode="normal" in="SourceGraphic" in2="effect1_dropShadow_96_822" result="shape"/>
</filter>
<filter id="filter1_d_96_822" x="81.5871" y="48.8019" width="10.8273" height="11.7199" filterUnits="userSpaceOnUse" color-interpolation-filters="sRGB">
<feFlood flood-opacity="0" result="BackgroundImageFix"/>
<feColorMatrix in="SourceAlpha" type="matrix" values="0 0 0 0 0 0 0 0 0 0 0 0 0 0 0 0 0 0 127 0" result="hardAlpha"/>
<feOffset dy="4"/>
<feGaussianBlur stdDeviation="2"/>
<feComposite in2="hardAlpha" operator="out"/>
<feColorMatrix type="matrix" values="0 0 0 0 0 0 0 0 0 0 0 0 0 0 0 0 0 0 0.25 0"/>
<feBlend mode="normal" in2="BackgroundImageFix" result="effect1_dropShadow_96_822"/>
<feBlend mode="normal" in="SourceGraphic" in2="effect1_dropShadow_96_822" result="shape"/>
</filter>
<filter id="filter2_d_96_822" x="73.1289" y="48.8019" width="8.53445" height="11.7199" filterUnits="userSpaceOnUse" color-interpolation-filters="sRGB">
<feFlood flood-opacity="0" result="BackgroundImageFix"/>
<feColorMatrix in="SourceAlpha" type="matrix" values="0 0 0 0 0 0 0 0 0 0 0 0 0 0 0 0 0 0 127 0" result="hardAlpha"/>
<feOffset dy="4"/>
<feGaussianBlur stdDeviation="2"/>
<feComposite in2="hardAlpha" operator="out"/>
<feColorMatrix type="matrix" values="0 0 0 0 0 0 0 0 0 0 0 0 0 0 0 0 0 0 0.25 0"/>
<feBlend mode="normal" in2="BackgroundImageFix" result="effect1_dropShadow_96_822"/>
<feBlend mode="normal" in="SourceGraphic" in2="effect1_dropShadow_96_822" result="shape"/>
</filter>
<filter id="filter3_d_96_822" x="61.6854" y="48.7591" width="11.5222" height="11.8054" filterUnits="userSpaceOnUse" color-interpolation-filters="sRGB">
<feFlood flood-opacity="0" result="BackgroundImageFix"/>
<feColorMatrix in="SourceAlpha" type="matrix" values="0 0 0 0 0 0 0 0 0 0 0 0 0 0 0 0 0 0 127 0" result="hardAlpha"/>
<feOffset dy="4"/>
<feGaussianBlur stdDeviation="2"/>
<feComposite in2="hardAlpha" operator="out"/>
<feColorMatrix type="matrix" values="0 0 0 0 0 0 0 0 0 0 0 0 0 0 0 0 0 0 0.25 0"/>
<feBlend mode="normal" in2="BackgroundImageFix" result="effect1_dropShadow_96_822"/>
<feBlend mode="normal" in="SourceGraphic" in2="effect1_dropShadow_96_822" result="shape"/>
</filter>
<filter id="filter4_d_96_822" x="51.237" y="48.8019" width="10.5254" height="11.7199" filterUnits="userSpaceOnUse" color-interpolation-filters="sRGB">
<feFlood flood-opacity="0" result="BackgroundImageFix"/>
<feColorMatrix in="SourceAlpha" type="matrix" values="0 0 0 0 0 0 0 0 0 0 0 0 0 0 0 0 0 0 127 0" result="hardAlpha"/>
<feOffset dy="4"/>
<feGaussianBlur stdDeviation="2"/>
<feComposite in2="hardAlpha" operator="out"/>
<feColorMatrix type="matrix" values="0 0 0 0 0 0 0 0 0 0 0 0 0 0 0 0 0 0 0.25 0"/>
<feBlend mode="normal" in2="BackgroundImageFix" result="effect1_dropShadow_96_822"/>
<feBlend mode="normal" in="SourceGraphic" in2="effect1_dropShadow_96_822" result="shape"/>
</filter>
<filter id="filter5_d_96_822" x="40.7886" y="48.8019" width="10.8273" height="11.7199" filterUnits="userSpaceOnUse" color-interpolation-filters="sRGB">
<feFlood flood-opacity="0" result="BackgroundImageFix"/>
<feColorMatrix in="SourceAlpha" type="matrix" values="0 0 0 0 0 0 0 0 0 0 0 0 0 0 0 0 0 0 127 0" result="hardAlpha"/>
<feOffset dy="4"/>
<feGaussianBlur stdDeviation="2"/>
<feComposite in2="hardAlpha" operator="out"/>
<feColorMatrix type="matrix" values="0 0 0 0 0 0 0 0 0 0 0 0 0 0 0 0 0 0 0.25 0"/>
<feBlend mode="normal" in2="BackgroundImageFix" result="effect1_dropShadow_96_822"/>
<feBlend mode="normal" in="SourceGraphic" in2="effect1_dropShadow_96_822" result="shape"/>
</filter>
<filter id="filter6_d_96_822" x="32.3304" y="48.8019" width="8.53445" height="11.7199" filterUnits="userSpaceOnUse" color-interpolation-filters="sRGB">
<feFlood flood-opacity="0" result="BackgroundImageFix"/>
<feColorMatrix in="SourceAlpha" type="matrix" values="0 0 0 0 0 0 0 0 0 0 0 0 0 0 0 0 0 0 127 0" result="hardAlpha"/>
<feOffset dy="4"/>
<feGaussianBlur stdDeviation="2"/>
<feComposite in2="hardAlpha" operator="out"/>
<feColorMatrix type="matrix" values="0 0 0 0 0 0 0 0 0 0 0 0 0 0 0 0 0 0 0.25 0"/>
<feBlend mode="normal" in2="BackgroundImageFix" result="effect1_dropShadow_96_822"/>
<feBlend mode="normal" in="SourceGraphic" in2="effect1_dropShadow_96_822" result="shape"/>
</filter>
<filter id="filter7_d_96_822" x="21.8821" y="48.8019" width="10.5254" height="11.7199" filterUnits="userSpaceOnUse" color-interpolation-filters="sRGB">
<feFlood flood-opacity="0" result="BackgroundImageFix"/>
<feColorMatrix in="SourceAlpha" type="matrix" values="0 0 0 0 0 0 0 0 0 0 0 0 0 0 0 0 0 0 127 0" result="hardAlpha"/>
<feOffset dy="4"/>
<feGaussianBlur stdDeviation="2"/>
<feComposite in2="hardAlpha" operator="out"/>
<feColorMatrix type="matrix" values="0 0 0 0 0 0 0 0 0 0 0 0 0 0 0 0 0 0 0.25 0"/>
<feBlend mode="normal" in2="BackgroundImageFix" result="effect1_dropShadow_96_822"/>
<feBlend mode="normal" in="SourceGraphic" in2="effect1_dropShadow_96_822" result="shape"/>
</filter>
<filter id="filter8_d_96_822" x="10.9362" y="48.7591" width="11.2068" height="11.7199" filterUnits="userSpaceOnUse" color-interpolation-filters="sRGB">
<feFlood flood-opacity="0" result="BackgroundImageFix"/>
<feColorMatrix in="SourceAlpha" type="matrix" values="0 0 0 0 0 0 0 0 0 0 0 0 0 0 0 0 0 0 127 0" result="hardAlpha"/>
<feOffset dy="4"/>
<feGaussianBlur stdDeviation="2"/>
<feComposite in2="hardAlpha" operator="out"/>
<feColorMatrix type="matrix" values="0 0 0 0 0 0 0 0 0 0 0 0 0 0 0 0 0 0 0.25 0"/>
<feBlend mode="normal" in2="BackgroundImageFix" result="effect1_dropShadow_96_822"/>
<feBlend mode="normal" in="SourceGraphic" in2="effect1_dropShadow_96_822" result="shape"/>
</filter>
<filter id="filter9_d_96_822" x="-0.00982666" y="48.7591" width="11.3297" height="11.7199" filterUnits="userSpaceOnUse" color-interpolation-filters="sRGB">
<feFlood flood-opacity="0" result="BackgroundImageFix"/>
<feColorMatrix in="SourceAlpha" type="matrix" values="0 0 0 0 0 0 0 0 0 0 0 0 0 0 0 0 0 0 127 0" result="hardAlpha"/>
<feOffset dy="4"/>
<feGaussianBlur stdDeviation="2"/>
<feComposite in2="hardAlpha" operator="out"/>
<feColorMatrix type="matrix" values="0 0 0 0 0 0 0 0 0 0 0 0 0 0 0 0 0 0 0.25 0"/>
<feBlend mode="normal" in2="BackgroundImageFix" result="effect1_dropShadow_96_822"/>
<feBlend mode="normal" in="SourceGraphic" in2="effect1_dropShadow_96_822" result="shape"/>
</filter>
</defs>
</svg>
